<svg width="19" height="19" viewBox="0 0 19 19" fill="none" xmlns="http://www.w3.org/2000/svg">
<path d="M0 2.74464C0 2.13845 0.212169 1.63835 0.636488 1.24435C1.06081 0.850323 1.61244 0.65332 2.29136 0.65332C2.95816 0.65332 3.49765 0.847286 3.90986 1.23525C4.33418 1.63533 4.54635 2.15663 4.54635 2.7992C4.54635 3.38113 4.34025 3.86606 3.92804 4.25403C3.50372 4.6541 2.94603 4.85414 2.25499 4.85414H2.2368C1.57 4.85414 1.03051 4.6541 0.618303 4.25403C0.206095 3.85395 0 3.35081 0 2.74464ZM0.23641 18.6568V6.50901H4.27356V18.6568H0.23641ZM6.51037 18.6568H10.5475V11.8737C10.5475 11.4494 10.596 11.122 10.693 10.8917C10.8627 10.4795 11.1204 10.1309 11.4659 9.84603C11.8114 9.56112 12.2448 9.41867 12.7661 9.41867C14.124 9.41867 14.8029 10.334 14.8029 12.1647V18.6568H18.8401V11.6918C18.8401 9.89755 18.4157 8.53668 17.5671 7.60923C16.7184 6.68177 15.597 6.21805 14.2028 6.21805C12.6388 6.21805 11.4204 6.89091 10.5475 8.23662V8.273H10.5293L10.5475 8.23662V6.50901H6.51037C6.53461 6.89696 6.54674 8.10325 6.54674 10.1279C6.54674 12.1525 6.53461 14.9955 6.51037 18.6568Z" fill="#CACACA"/>
</svg>
