<svg width="19" height="24" viewBox="0 0 19 24" fill="none" xmlns="http://www.w3.org/2000/svg">
<path d="M12.9326 3.72212C13.3737 3.21372 13.71 2.62319 13.9223 1.98444C14.1345 1.34569 14.2185 0.671298 14.1694 0C12.8152 0.109315 11.5581 0.746241 10.669 1.77355C10.2432 2.26592 9.92056 2.83871 9.72014 3.45801C9.51971 4.07731 9.44559 4.73053 9.50216 5.37899C10.1627 5.3845 10.8157 5.23792 11.4106 4.95061C12.0055 4.6633 12.5262 4.24296 12.9326 3.72212ZM15.8729 12.4032C15.8808 11.5091 16.1163 10.6318 16.5572 9.85395C16.9982 9.07613 17.6301 8.4235 18.3933 7.95764C17.9116 7.26367 17.2749 6.69146 16.5336 6.28639C15.7924 5.88132 14.9669 5.65454 14.1227 5.62403C12.3025 5.43734 10.6223 6.68582 9.65385 6.68582C8.6854 6.68582 7.32023 5.64736 5.80338 5.6707C4.81174 5.70336 3.84549 5.99248 2.99889 6.50985C2.15228 7.02722 1.45422 7.75518 0.972782 8.62273C-1.0808 12.1932 0.447717 17.5022 2.5013 20.3842C3.43475 21.796 4.60156 23.3945 6.14175 23.3362C7.68194 23.2779 8.18367 22.3794 9.96889 22.3794C11.7541 22.3794 12.3025 23.3362 13.8194 23.3012C15.3362 23.2662 16.4097 21.8544 17.3898 20.4425C18.0841 19.4175 18.6265 18.2974 19 17.1171C18.0753 16.7227 17.2863 16.0661 16.7306 15.2284C16.1749 14.3907 15.8767 13.4085 15.8729 12.4032Z" fill="#CACACA"/>
</svg>
