<svg width="37" height="34" viewBox="0 0 37 34" fill="none" xmlns="http://www.w3.org/2000/svg">
<path d="M6.99988 18.6667C6.99988 21.414 8.10777 23.9025 9.90112 25.71C10.0741 25.8842 10.1605 25.9713 10.2116 26.0552C10.2603 26.1352 10.2887 26.204 10.3104 26.2952C10.3332 26.3905 10.3332 26.4992 10.3332 26.7163V30.6667C10.3332 31.1333 10.3332 31.3667 10.424 31.545C10.5039 31.7018 10.6314 31.8293 10.7882 31.9092C10.9665 32 11.1998 32 11.6665 32H14.8332C15.2999 32 15.5333 32 15.7115 31.9092C15.8683 31.8293 15.9958 31.7018 16.0757 31.545C16.1665 31.3667 16.1665 31.1333 16.1665 30.6667V30C16.1665 29.5333 16.1665 29.3 16.2573 29.1217C16.3373 28.9648 16.4648 28.8373 16.6215 28.7575C16.7998 28.6667 17.0332 28.6667 17.4998 28.6667H19.8332C20.3 28.6667 20.5333 28.6667 20.7115 28.7575C20.8683 28.8373 20.9958 28.9648 21.0757 29.1217C21.1665 29.3 21.1665 29.5333 21.1665 30V30.6667C21.1665 31.1333 21.1665 31.3667 21.2573 31.545C21.3373 31.7018 21.4648 31.8293 21.6215 31.9092C21.7998 32 22.0332 32 22.4998 32H25.6667C26.1333 32 26.3667 32 26.545 31.9092C26.7018 31.8293 26.8293 31.7018 26.9092 31.545C27 31.3667 27 31.1333 27 30.6667V29.0405C27 28.7038 27 28.5353 27.048 28.4002C27.0938 28.2707 27.1518 28.18 27.25 28.0837C27.3523 27.9833 27.5258 27.9028 27.8728 27.7417C29.5098 26.9817 30.9067 25.7918 31.9185 24.317C32.0965 24.0577 32.1853 23.928 32.2805 23.8513C32.3713 23.778 32.4528 23.7352 32.5645 23.7017C32.6815 23.6667 32.8203 23.6667 33.0978 23.6667H34C34.4667 23.6667 34.7 23.6667 34.8783 23.5758C35.0352 23.496 35.1627 23.3685 35.2425 23.2117C35.3333 23.0333 35.3333 22.8 35.3333 22.3333V16.6428C35.3333 16.1987 35.3333 15.9765 35.2508 15.805C35.1688 15.635 35.0317 15.4978 34.8617 15.4158C34.6902 15.3333 34.468 15.3333 34.0238 15.3333C33.7022 15.3333 33.5413 15.3333 33.4118 15.2897C33.2722 15.2427 33.1742 15.18 33.0728 15.073C32.979 14.9737 32.9022 14.8077 32.7488 14.4758C32.2563 13.4104 31.582 12.4463 30.7655 11.6234C30.5925 11.4491 30.506 11.3619 30.455 11.2781C30.4062 11.1981 30.3778 11.1293 30.3562 11.0382C30.3333 10.9428 30.3333 10.8342 30.3333 10.617V8.76763C30.3333 8.16755 30.3333 7.86752 30.2083 7.66585C30.0988 7.48918 29.9273 7.3598 29.7275 7.30307C29.4992 7.23832 29.2107 7.32075 28.6337 7.4856L24.6795 8.61537C24.6122 8.63457 24.5787 8.64417 24.5445 8.6509C24.5142 8.6569 24.4835 8.66118 24.4527 8.66377C24.418 8.66667 24.383 8.66667 24.3132 8.66667H23.5983M6.99988 18.6667C6.99988 14.8265 9.1644 11.492 12.3399 9.8165M6.99988 18.6667H5.33333C3.49238 18.6667 2 17.1743 2 15.3333C2 14.0995 2.67033 13.0223 3.66667 12.4459M23.6667 7.83333C23.6667 11.055 21.055 13.6667 17.8333 13.6667C14.6117 13.6667 12 11.055 12 7.83333C12 4.61167 14.6117 2 17.8333 2C21.055 2 23.6667 4.61167 23.6667 7.83333Z" stroke="#FF6F1F" stroke-width="3.33333" stroke-linecap="round" stroke-linejoin="round"/>
</svg>
