<svg width="37" height="34" viewBox="0 0 37 34" fill="none" xmlns="http://www.w3.org/2000/svg">
<path d="M6.7644 7C9.78928 3.9144 14.0045 2 18.6668 2C23.3292 2 27.5443 3.9144 30.5692 7M26.1205 12C24.2893 9.95417 21.6283 8.66667 18.6667 8.66667C15.705 8.66667 13.0441 9.95417 11.213 12M18.6667 25.3333C21.1842 25.3333 23.6013 25.7627 25.849 26.5522C25.9237 26.5783 25.9612 26.5915 26.02 26.6175C26.5543 26.853 26.9647 27.4318 27.0097 28.014C27.0147 28.0783 27.0147 28.1352 27.0147 28.249C27.0147 28.6368 27.0147 28.8308 27.0308 28.9942C27.187 30.5762 28.4385 31.8277 30.0205 31.9838C30.1838 32 30.3778 32 30.7657 32H31.174C31.9417 32 32.3253 32 32.6447 31.937C33.9715 31.6755 35.0088 30.6382 35.2703 29.3113C35.3333 28.992 35.3333 28.6083 35.3333 27.8407V27.5103C35.3333 26.7183 35.3333 26.3222 35.2488 25.8682C35.0597 24.8532 34.3222 23.5972 33.5277 22.9373C33.1725 22.6423 32.9315 22.508 32.4497 22.2392C28.37 19.9635 23.6698 18.6667 18.6667 18.6667C13.6635 18.6667 8.96328 19.9635 4.88368 22.2392C4.40183 22.508 4.1609 22.6423 3.80567 22.9373C3.01125 23.5972 2.27368 24.8532 2.08457 25.8682C2 26.3222 2 26.7183 2 27.5103V27.8407C2 28.6083 2 28.992 2.06293 29.3113C2.32448 30.6382 3.36182 31.6755 4.68868 31.937C5.00793 32 5.39173 32 6.15933 32H6.56762C6.95553 32 7.1495 32 7.31288 31.9838C8.89482 31.8277 10.1463 30.5762 10.3025 28.9942C10.3187 28.8308 10.3187 28.6368 10.3187 28.249C10.3187 28.1352 10.3187 28.0783 10.3236 28.014C10.3687 27.4318 10.779 26.853 11.3133 26.6175C11.3722 26.5915 11.4096 26.5783 11.4843 26.5522C13.732 25.7627 16.1492 25.3333 18.6667 25.3333Z" stroke="#C19469" stroke-width="3.33333" stroke-linecap="round" stroke-linejoin="round"/>
</svg>
