<svg width="19" height="19" viewBox="0 0 19 19" fill="none" xmlns="http://www.w3.org/2000/svg">
<path d="M11.5623 6.71571C12.9007 8.0541 12.9007 10.2241 11.5623 11.5625C10.2239 12.9009 8.05398 12.9009 6.71559 11.5625C5.37719 10.2241 5.37719 8.0541 6.71559 6.71571C8.05398 5.37732 10.2239 5.37732 11.5623 6.71571Z" fill="#CACACA"/>
<path d="M13.1375 0H5.14076C2.30597 0 0 2.30597 0 5.14076V13.1375C0 15.9723 2.30597 18.2783 5.14076 18.2783H13.1375C15.9723 18.2783 18.2783 15.9723 18.2783 13.1375V5.14076C18.2783 2.30597 15.9723 0 13.1375 0ZM9.13913 13.7087C6.61951 13.7087 4.56956 11.6593 4.56956 9.13913C4.56956 6.61896 6.61951 4.56956 9.13913 4.56956C11.6588 4.56956 13.7087 6.61896 13.7087 9.13913C13.7087 11.6593 11.6588 13.7087 9.13913 13.7087ZM14.2799 4.56956C13.9644 4.56956 13.7087 4.31381 13.7087 3.99837C13.7087 3.68286 13.9644 3.42717 14.2799 3.42717C14.5953 3.42717 14.8511 3.68286 14.8511 3.99837C14.8511 4.31381 14.5953 4.56956 14.2799 4.56956Z" fill="#CACACA"/>
</svg>
