<svg width="112" height="112" viewBox="0 0 112 112" fill="none" xmlns="http://www.w3.org/2000/svg">
<path d="M15.0485 108.381C13.4692 109.961 11.4037 110.75 9.33373 110.75C7.26396 110.75 5.19845 109.961 3.61818 108.382C0.460546 105.223 0.460708 100.108 3.61806 96.9511L96.9506 3.61853C100.109 0.460752 105.224 0.460306 108.381 3.6183C111.539 6.77674 111.538 11.8915 108.381 15.0488L15.0485 108.381ZM32.9755 17.1134C32.9755 25.8557 25.8609 32.9712 17.1083 32.9712C8.36557 32.9712 1.25047 25.8561 1.25047 17.1134C1.25047 8.36569 8.36579 1.25082 17.1083 1.25082C25.8607 1.25082 32.9755 8.36614 32.9755 17.1134ZM19.917 17.1134C19.917 15.5591 18.6531 14.3047 17.1083 14.3047C15.5539 14.3047 14.309 15.5689 14.309 17.1134C14.309 17.9727 14.7203 18.6551 15.3043 19.0844C15.8519 19.487 16.515 19.6485 17.113 19.6485C17.711 19.6485 18.3741 19.487 18.9218 19.0844C19.5057 18.6551 19.917 17.9727 19.917 17.1134ZM79.0246 94.8875C79.0246 86.1451 86.1392 79.0296 94.8918 79.0296C103.635 79.0296 110.75 86.1447 110.75 94.8875C110.75 103.635 103.634 110.75 94.8918 110.75C86.1394 110.75 79.0246 103.635 79.0246 94.8875ZM94.8918 92.0835C93.3495 92.0835 92.0831 93.3354 92.0831 94.8875C92.0831 95.7463 92.4918 96.4302 93.0757 96.8618C93.6236 97.2668 94.2877 97.4296 94.8871 97.4296C95.4865 97.4296 96.1506 97.2668 96.6985 96.8618C97.2825 96.4302 97.6911 95.7463 97.6911 94.8875C97.6911 93.3452 96.4438 92.0835 94.8918 92.0835Z" stroke="#276EF1" stroke-width="2.5"/>
</svg>
