<svg width="112" height="112" viewBox="0 0 112 112" fill="none" xmlns="http://www.w3.org/2000/svg">
<mask id="path-1-inside-1_6_40" fill="white">
<path d="M109.053 106.105H100.211V26.5263C100.254 25.8817 100.081 25.2409 99.7172 24.7066C99.3539 24.1723 98.8219 23.7753 98.2063 23.5789L76.6316 14.56V106.105H70.7368V2.94737C70.7368 2.16568 70.4263 1.416 69.8736 0.863265C69.3208 0.310526 68.5712 0 67.7895 0H14.7368C13.9552 0 13.2055 0.310526 12.6527 0.863265C12.1 1.416 11.7895 2.16568 11.7895 2.94737V106.105H2.94737C2.16568 106.105 1.416 106.416 0.863265 106.969C0.310526 107.521 0 108.271 0 109.053C0 109.834 0.310526 110.584 0.863265 111.137C1.416 111.689 2.16568 112 2.94737 112H109.053C109.834 112 110.584 111.689 111.137 111.137C111.689 110.584 112 109.834 112 109.053C112 108.271 111.689 107.521 111.137 106.969C110.584 106.416 109.834 106.105 109.053 106.105ZM85.4737 35.3684H91.3684C92.1501 35.3684 92.8998 35.6789 93.4525 36.2317C94.0053 36.7844 94.3158 37.5341 94.3158 38.3158C94.3007 39.0928 93.9853 39.8337 93.4358 40.3832C92.8863 40.9327 92.1454 41.2481 91.3684 41.2632H85.4737C84.6967 41.2481 83.9558 40.9327 83.4063 40.3832C82.8568 39.8337 82.5414 39.0928 82.5263 38.3158C82.5263 37.5341 82.8368 36.7844 83.3896 36.2317C83.9423 35.6789 84.692 35.3684 85.4737 35.3684ZM85.4737 53.0526H91.3684C92.1501 53.0526 92.8998 53.3632 93.4525 53.9159C94.0053 54.4686 94.3158 55.2183 94.3158 56C94.3158 56.7817 94.0053 57.5314 93.4525 58.0841C92.8998 58.6368 92.1501 58.9474 91.3684 58.9474H85.4737C84.692 58.9474 83.9423 58.6368 83.3896 58.0841C82.8368 57.5314 82.5263 56.7817 82.5263 56C82.5263 55.2183 82.8368 54.4686 83.3896 53.9159C83.9423 53.3632 84.692 53.0526 85.4737 53.0526ZM85.4737 70.7368H91.3684C92.1454 70.7519 92.8863 71.0673 93.4358 71.6168C93.9853 72.1663 94.3007 72.9072 94.3158 73.6842C94.3158 74.4659 94.0053 75.2156 93.4525 75.7683C92.8998 76.3211 92.1501 76.6316 91.3684 76.6316H85.4737C84.692 76.6316 83.9423 76.3211 83.3896 75.7683C82.8368 75.2156 82.5263 74.4659 82.5263 73.6842C82.5414 72.9072 82.8568 72.1663 83.4063 71.6168C83.9558 71.0673 84.6967 70.7519 85.4737 70.7368ZM85.4737 88.4211H91.3684C92.1501 88.4211 92.8998 88.7316 93.4525 89.2843C94.0053 89.8371 94.3158 90.5867 94.3158 91.3684C94.3158 92.1501 94.0053 92.8998 93.4525 93.4525C92.8998 94.0053 92.1501 94.3158 91.3684 94.3158H85.4737C84.692 94.3158 83.9423 94.0053 83.3896 93.4525C82.8368 92.8998 82.5263 92.1501 82.5263 91.3684C82.5263 90.5867 82.8368 89.8371 83.3896 89.2843C83.9423 88.7316 84.692 88.4211 85.4737 88.4211ZM47.1579 17.6842H53.0526C53.8343 17.6842 54.584 17.9947 55.1367 18.5475C55.6895 19.1002 56 19.8499 56 20.6316C56 21.4133 55.6895 22.1629 55.1367 22.7157C54.584 23.2684 53.8343 23.5789 53.0526 23.5789H47.1579C46.3762 23.5789 45.6265 23.2684 45.0738 22.7157C44.521 22.1629 44.2105 21.4133 44.2105 20.6316C44.2105 19.8499 44.521 19.1002 45.0738 18.5475C45.6265 17.9947 46.3762 17.6842 47.1579 17.6842ZM47.1579 35.3684H53.0526C53.8343 35.3684 54.584 35.6789 55.1367 36.2317C55.6895 36.7844 56 37.5341 56 38.3158C56 39.0975 55.6895 39.8472 55.1367 40.3999C54.584 40.9526 53.8343 41.2632 53.0526 41.2632H47.1579C46.3762 41.2632 45.6265 40.9526 45.0738 40.3999C44.521 39.8472 44.2105 39.0975 44.2105 38.3158C44.2105 37.5341 44.521 36.7844 45.0738 36.2317C45.6265 35.6789 46.3762 35.3684 47.1579 35.3684ZM47.1579 53.0526H53.0526C53.8343 53.0526 54.584 53.3632 55.1367 53.9159C55.6895 54.4686 56 55.2183 56 56C56 56.7817 55.6895 57.5314 55.1367 58.0841C54.584 58.6368 53.8343 58.9474 53.0526 58.9474H47.1579C46.3762 58.9474 45.6265 58.6368 45.0738 58.0841C44.521 57.5314 44.2105 56.7817 44.2105 56C44.2105 55.2183 44.521 54.4686 45.0738 53.9159C45.6265 53.3632 46.3762 53.0526 47.1579 53.0526ZM47.1579 70.7368H53.0526C53.8343 70.7368 54.584 71.0474 55.1367 71.6001C55.6895 72.1528 56 72.9025 56 73.6842C56 74.4659 55.6895 75.2156 55.1367 75.7683C54.584 76.3211 53.8343 76.6316 53.0526 76.6316H47.1579C46.3762 76.6316 45.6265 76.3211 45.0738 75.7683C44.521 75.2156 44.2105 74.4659 44.2105 73.6842C44.2105 72.9025 44.521 72.1528 45.0738 71.6001C45.6265 71.0474 46.3762 70.7368 47.1579 70.7368ZM29.12 17.6842H35.3684C36.1501 17.6842 36.8998 17.9947 37.4525 18.5475C38.0053 19.1002 38.3158 19.8499 38.3158 20.6316C38.3158 21.4133 38.0053 22.1629 37.4525 22.7157C36.8998 23.2684 36.1501 23.5789 35.3684 23.5789H29.4737C28.692 23.5789 27.9423 23.2684 27.3896 22.7157C26.8368 22.1629 26.5263 21.4133 26.5263 20.6316C26.5263 19.8499 26.8368 19.1002 27.3896 18.5475C27.9423 17.9947 28.692 17.6842 29.4737 17.6842H29.12ZM29.12 35.3684H35.3684C36.1501 35.3684 36.8998 35.6789 37.4525 36.2317C38.0053 36.7844 38.3158 37.5341 38.3158 38.3158C38.3158 39.0975 38.0053 39.8472 37.4525 40.3999C36.8998 40.9526 36.1501 41.2632 35.3684 41.2632H29.4737C28.692 41.2632 27.9423 40.9526 27.3896 40.3999C26.8368 39.8472 26.5263 39.0975 26.5263 38.3158C26.5263 37.5341 26.8368 36.7844 27.3896 36.2317C27.9423 35.6789 28.692 35.3684 29.4737 35.3684H29.12ZM29.12 53.0526H35.3684C36.1501 53.0526 36.8998 53.3632 37.4525 53.9159C38.0053 54.4686 38.3158 55.2183 38.3158 56C38.3158 56.7817 38.0053 57.5314 37.4525 58.0841C36.8998 58.6368 36.1501 58.9474 35.3684 58.9474H29.4737C28.692 58.9474 27.9423 58.6368 27.3896 58.0841C26.8368 57.5314 26.5263 56.7817 26.5263 56C26.5263 55.2183 26.8368 54.4686 27.3896 53.9159C27.9423 53.3632 28.692 53.0526 29.4737 53.0526H29.12ZM29.12 70.7368H35.3684C36.1501 70.7368 36.8998 71.0474 37.4525 71.6001C38.0053 72.1528 38.3158 72.9025 38.3158 73.6842C38.3158 74.4659 38.0053 75.2156 37.4525 75.7683C36.8998 76.3211 36.1501 76.6316 35.3684 76.6316H29.4737C28.692 76.6316 27.9423 76.3211 27.3896 75.7683C26.8368 75.2156 26.5263 74.4659 26.5263 73.6842C26.5263 72.9025 26.8368 72.1528 27.3896 71.6001C27.9423 71.0474 28.692 70.7368 29.4737 70.7368H29.12ZM44.2105 106.105V94.3158H38.3158V106.105H32.4211V91.1916C32.4662 90.4409 32.7965 89.7359 33.3444 89.2209C33.8924 88.7058 34.6164 88.4197 35.3684 88.4211H47.1579C47.9396 88.4211 48.6893 88.7316 49.242 89.2843C49.7947 89.8371 50.1053 90.5867 50.1053 91.3684V106.105H44.2105Z"/>
</mask>
<path d="M109.053 106.105H100.211V26.5263C100.254 25.8817 100.081 25.2409 99.7172 24.7066C99.3539 24.1723 98.8219 23.7753 98.2063 23.5789L76.6316 14.56V106.105H70.7368V2.94737C70.7368 2.16568 70.4263 1.416 69.8736 0.863265C69.3208 0.310526 68.5712 0 67.7895 0H14.7368C13.9552 0 13.2055 0.310526 12.6527 0.863265C12.1 1.416 11.7895 2.16568 11.7895 2.94737V106.105H2.94737C2.16568 106.105 1.416 106.416 0.863265 106.969C0.310526 107.521 0 108.271 0 109.053C0 109.834 0.310526 110.584 0.863265 111.137C1.416 111.689 2.16568 112 2.94737 112H109.053C109.834 112 110.584 111.689 111.137 111.137C111.689 110.584 112 109.834 112 109.053C112 108.271 111.689 107.521 111.137 106.969C110.584 106.416 109.834 106.105 109.053 106.105ZM85.4737 35.3684H91.3684C92.1501 35.3684 92.8998 35.6789 93.4525 36.2317C94.0053 36.7844 94.3158 37.5341 94.3158 38.3158C94.3007 39.0928 93.9853 39.8337 93.4358 40.3832C92.8863 40.9327 92.1454 41.2481 91.3684 41.2632H85.4737C84.6967 41.2481 83.9558 40.9327 83.4063 40.3832C82.8568 39.8337 82.5414 39.0928 82.5263 38.3158C82.5263 37.5341 82.8368 36.7844 83.3896 36.2317C83.9423 35.6789 84.692 35.3684 85.4737 35.3684ZM85.4737 53.0526H91.3684C92.1501 53.0526 92.8998 53.3632 93.4525 53.9159C94.0053 54.4686 94.3158 55.2183 94.3158 56C94.3158 56.7817 94.0053 57.5314 93.4525 58.0841C92.8998 58.6368 92.1501 58.9474 91.3684 58.9474H85.4737C84.692 58.9474 83.9423 58.6368 83.3896 58.0841C82.8368 57.5314 82.5263 56.7817 82.5263 56C82.5263 55.2183 82.8368 54.4686 83.3896 53.9159C83.9423 53.3632 84.692 53.0526 85.4737 53.0526ZM85.4737 70.7368H91.3684C92.1454 70.7519 92.8863 71.0673 93.4358 71.6168C93.9853 72.1663 94.3007 72.9072 94.3158 73.6842C94.3158 74.4659 94.0053 75.2156 93.4525 75.7683C92.8998 76.3211 92.1501 76.6316 91.3684 76.6316H85.4737C84.692 76.6316 83.9423 76.3211 83.3896 75.7683C82.8368 75.2156 82.5263 74.4659 82.5263 73.6842C82.5414 72.9072 82.8568 72.1663 83.4063 71.6168C83.9558 71.0673 84.6967 70.7519 85.4737 70.7368ZM85.4737 88.4211H91.3684C92.1501 88.4211 92.8998 88.7316 93.4525 89.2843C94.0053 89.8371 94.3158 90.5867 94.3158 91.3684C94.3158 92.1501 94.0053 92.8998 93.4525 93.4525C92.8998 94.0053 92.1501 94.3158 91.3684 94.3158H85.4737C84.692 94.3158 83.9423 94.0053 83.3896 93.4525C82.8368 92.8998 82.5263 92.1501 82.5263 91.3684C82.5263 90.5867 82.8368 89.8371 83.3896 89.2843C83.9423 88.7316 84.692 88.4211 85.4737 88.4211ZM47.1579 17.6842H53.0526C53.8343 17.6842 54.584 17.9947 55.1367 18.5475C55.6895 19.1002 56 19.8499 56 20.6316C56 21.4133 55.6895 22.1629 55.1367 22.7157C54.584 23.2684 53.8343 23.5789 53.0526 23.5789H47.1579C46.3762 23.5789 45.6265 23.2684 45.0738 22.7157C44.521 22.1629 44.2105 21.4133 44.2105 20.6316C44.2105 19.8499 44.521 19.1002 45.0738 18.5475C45.6265 17.9947 46.3762 17.6842 47.1579 17.6842ZM47.1579 35.3684H53.0526C53.8343 35.3684 54.584 35.6789 55.1367 36.2317C55.6895 36.7844 56 37.5341 56 38.3158C56 39.0975 55.6895 39.8472 55.1367 40.3999C54.584 40.9526 53.8343 41.2632 53.0526 41.2632H47.1579C46.3762 41.2632 45.6265 40.9526 45.0738 40.3999C44.521 39.8472 44.2105 39.0975 44.2105 38.3158C44.2105 37.5341 44.521 36.7844 45.0738 36.2317C45.6265 35.6789 46.3762 35.3684 47.1579 35.3684ZM47.1579 53.0526H53.0526C53.8343 53.0526 54.584 53.3632 55.1367 53.9159C55.6895 54.4686 56 55.2183 56 56C56 56.7817 55.6895 57.5314 55.1367 58.0841C54.584 58.6368 53.8343 58.9474 53.0526 58.9474H47.1579C46.3762 58.9474 45.6265 58.6368 45.0738 58.0841C44.521 57.5314 44.2105 56.7817 44.2105 56C44.2105 55.2183 44.521 54.4686 45.0738 53.9159C45.6265 53.3632 46.3762 53.0526 47.1579 53.0526ZM47.1579 70.7368H53.0526C53.8343 70.7368 54.584 71.0474 55.1367 71.6001C55.6895 72.1528 56 72.9025 56 73.6842C56 74.4659 55.6895 75.2156 55.1367 75.7683C54.584 76.3211 53.8343 76.6316 53.0526 76.6316H47.1579C46.3762 76.6316 45.6265 76.3211 45.0738 75.7683C44.521 75.2156 44.2105 74.4659 44.2105 73.6842C44.2105 72.9025 44.521 72.1528 45.0738 71.6001C45.6265 71.0474 46.3762 70.7368 47.1579 70.7368ZM29.12 17.6842H35.3684C36.1501 17.6842 36.8998 17.9947 37.4525 18.5475C38.0053 19.1002 38.3158 19.8499 38.3158 20.6316C38.3158 21.4133 38.0053 22.1629 37.4525 22.7157C36.8998 23.2684 36.1501 23.5789 35.3684 23.5789H29.4737C28.692 23.5789 27.9423 23.2684 27.3896 22.7157C26.8368 22.1629 26.5263 21.4133 26.5263 20.6316C26.5263 19.8499 26.8368 19.1002 27.3896 18.5475C27.9423 17.9947 28.692 17.6842 29.4737 17.6842H29.12ZM29.12 35.3684H35.3684C36.1501 35.3684 36.8998 35.6789 37.4525 36.2317C38.0053 36.7844 38.3158 37.5341 38.3158 38.3158C38.3158 39.0975 38.0053 39.8472 37.4525 40.3999C36.8998 40.9526 36.1501 41.2632 35.3684 41.2632H29.4737C28.692 41.2632 27.9423 40.9526 27.3896 40.3999C26.8368 39.8472 26.5263 39.0975 26.5263 38.3158C26.5263 37.5341 26.8368 36.7844 27.3896 36.2317C27.9423 35.6789 28.692 35.3684 29.4737 35.3684H29.12ZM29.12 53.0526H35.3684C36.1501 53.0526 36.8998 53.3632 37.4525 53.9159C38.0053 54.4686 38.3158 55.2183 38.3158 56C38.3158 56.7817 38.0053 57.5314 37.4525 58.0841C36.8998 58.6368 36.1501 58.9474 35.3684 58.9474H29.4737C28.692 58.9474 27.9423 58.6368 27.3896 58.0841C26.8368 57.5314 26.5263 56.7817 26.5263 56C26.5263 55.2183 26.8368 54.4686 27.3896 53.9159C27.9423 53.3632 28.692 53.0526 29.4737 53.0526H29.12ZM29.12 70.7368H35.3684C36.1501 70.7368 36.8998 71.0474 37.4525 71.6001C38.0053 72.1528 38.3158 72.9025 38.3158 73.6842C38.3158 74.4659 38.0053 75.2156 37.4525 75.7683C36.8998 76.3211 36.1501 76.6316 35.3684 76.6316H29.4737C28.692 76.6316 27.9423 76.3211 27.3896 75.7683C26.8368 75.2156 26.5263 74.4659 26.5263 73.6842C26.5263 72.9025 26.8368 72.1528 27.3896 71.6001C27.9423 71.0474 28.692 70.7368 29.4737 70.7368H29.12ZM44.2105 106.105V94.3158H38.3158V106.105H32.4211V91.1916C32.4662 90.4409 32.7965 89.7359 33.3444 89.2209C33.8924 88.7058 34.6164 88.4197 35.3684 88.4211H47.1579C47.9396 88.4211 48.6893 88.7316 49.242 89.2843C49.7947 89.8371 50.1053 90.5867 50.1053 91.3684V106.105H44.2105Z" stroke="#0061FE" stroke-width="4" mask="url(#path-1-inside-1_6_40)"/>
</svg>
